<svg width="380" height="400" viewBox="0 0 361 400" fill="none" xmlns="http://www.w3.org/2000/svg">
<path fill-rule="evenodd" clip-rule="evenodd" d="M261.65 80.2796C259.451 79.5254 257.357 78.4232 255.447 76.8927C241.026 65.3399 247.21 47.9099 255.937 38.8354C264.665 29.761 318.054 33.3806 292.869 75.4187C292.763 75.4788 292.655 75.5392 292.545 75.6C289.729 84.0253 292.103 91.2518 294.953 99.9226C296.115 103.459 297.356 107.236 298.356 111.432L271.644 109.632C264.302 100.258 261.519 90.808 261.65 80.2796Z" fill="#F5B9AB"/>
<path d="M255.447 76.8927L255.909 76.3566L255.909 76.3566L255.447 76.8927ZM261.65 80.2796L261.905 79.6297C262.182 79.7248 262.364 79.9789 262.36 80.2667L261.65 80.2796ZM255.937 38.8354L256.45 39.2965L256.45 39.2965L255.937 38.8354ZM292.869 75.4187L293.48 75.7506C293.416 75.858 293.323 75.9477 293.213 76.0104L292.869 75.4187ZM292.545 75.6L291.869 75.4062C291.926 75.2368 292.047 75.093 292.207 75.0045L292.545 75.6ZM294.953 99.9226L295.63 99.6955L295.63 99.6955L294.953 99.9226ZM298.356 111.432L299.048 111.258C299.099 111.472 299.04 111.701 298.889 111.871C298.737 112.042 298.513 112.134 298.285 112.119L298.356 111.432ZM271.644 109.632L271.573 110.319C271.374 110.306 271.193 110.211 271.074 110.059L271.644 109.632ZM255.909 76.3566C257.754 77.8345 259.777 78.8998 261.905 79.6297L261.395 80.9294C259.126 80.151 256.961 79.0118 254.985 77.4288L255.909 76.3566ZM256.45 39.2965C252.175 43.7417 248.53 50.2312 247.717 56.9936C246.908 63.721 248.893 70.7359 255.909 76.3566L254.985 77.4288C247.58 71.4966 245.447 64.0201 246.306 56.8758C247.161 49.7663 250.972 43.0037 255.425 38.3744L256.45 39.2965ZM292.257 75.0868C298.501 64.6654 299.799 56.7501 298.262 50.8802C296.728 45.0217 292.327 41.0437 286.808 38.5871C281.282 36.1276 274.693 35.2237 268.945 35.4993C266.073 35.637 263.433 36.068 261.258 36.7338C259.068 37.404 257.416 38.2915 256.45 39.2965L255.425 38.3744C256.64 37.1108 258.566 36.1264 260.868 35.4219C263.185 34.7129 265.951 34.2664 268.918 34.1241C274.848 33.8399 281.668 34.7668 287.433 37.3327C293.204 39.9015 297.974 44.1433 299.639 50.5032C301.302 56.8516 299.829 65.153 293.48 75.7506L292.257 75.0868ZM292.207 75.0045C292.315 74.9449 292.421 74.8857 292.525 74.827L293.213 76.0104C293.104 76.0718 292.994 76.1335 292.882 76.1956L292.207 75.0045ZM294.275 100.15C291.437 91.5117 288.972 84.0756 291.869 75.4062L293.22 75.7938C290.485 83.975 292.77 90.9919 295.63 99.6955L294.275 100.15ZM297.664 111.606C296.671 107.441 295.438 103.689 294.275 100.15L295.63 99.6955C296.791 103.23 298.041 107.031 299.048 111.258L297.664 111.606ZM271.715 108.946L298.427 110.745L298.285 112.119L271.573 110.319L271.715 108.946ZM262.36 80.2667C262.231 90.6515 264.969 99.9542 272.215 109.205L271.074 110.059C263.635 100.561 260.807 90.9645 260.94 80.2924L262.36 80.2667Z" fill="black"/>
<path d="M297.661 50.0326C301.841 55.5009 297.339 69.0065 294.017 72.3845C321.542 58.0236 304.116 25.622 295.624 31.5306C294.24 19.5513 279.621 15.3247 269.656 25.4561C244.672 6.48389 243.358 38.8119 252.176 43.7282C260.995 48.6446 271.694 43.9627 277.246 46.4979C282.799 49.0331 286.225 64.3898 288.024 55.8666C289.822 47.3434 292.436 43.1973 297.661 50.0326Z" fill="#044884" stroke="black" stroke-width="1.39887"/>
<path d="M322.364 288.573L283.62 285.929L292.945 187.866C292.945 187.866 247.993 87.7007 286.581 87.7003C341.104 87.7003 359.336 166.689 358.656 187.866C357.976 209.042 322.364 288.573 322.364 288.573Z" fill="#EEEEEE" stroke="black" stroke-width="1.39887"/>
<path d="M283.461 289.085L283.87 285.743L322.886 287.218L322.161 293.213C320.695 305.344 308.52 313.299 296.862 309.744C287.951 307.026 282.327 298.355 283.461 289.085Z" fill="#F5B9AB" stroke="black" stroke-width="1.39887" stroke-linejoin="round"/>
<path d="M227.09 218.004C201.887 195.027 233.207 118.917 238.315 109.859C245.752 96.9512 268.074 74.4964 297.867 87.9389C342.918 108.267 322.332 208.846 314.233 243.711L227.09 218.004Z" fill="#EEEEEE" stroke="black" stroke-width="1.39887"/>
<path d="M30.8387 297.77L26.7773 263.249C26.7773 263.249 121.07 234.514 198.782 223.732L305.484 232.399C321.512 268.014 313.608 333.468 194.731 303.377L30.8387 297.77Z" fill="#044884" stroke="black" stroke-width="1.39887"/>
<ellipse cx="157.6" cy="314.817" rx="156.6" ry="10.1554" fill="black" fill-opacity="0.5"/>
<path fill-rule="evenodd" clip-rule="evenodd" d="M145.098 237.288L128.345 286.285L93.1938 284.67L78.1118 198.718C74.9901 180.927 89.6644 164.357 108.541 164.357L124.99 164.357L126.493 162.149L135.499 164.873C137.73 165.285 139.853 165.935 141.845 166.792L289.187 211.36C315.78 219.404 328.081 248.735 314.327 271.304L298.141 297.863C284.955 319.498 254.191 324.255 233.602 307.842L145.098 237.288Z" fill="#044884"/>
<path d="M145.098 237.288L145.534 236.742L144.758 236.123L144.436 237.062L145.098 237.288ZM128.345 286.285L128.313 286.983L128.837 287.007L129.006 286.511L128.345 286.285ZM93.1938 284.67L92.5049 284.791L92.6018 285.343L93.1617 285.369L93.1938 284.67ZM78.1118 198.718L78.8007 198.597L78.8007 198.597L78.1118 198.718ZM108.541 164.357L108.541 165.056L108.541 164.357ZM124.99 164.357L124.99 165.056L125.36 165.056L125.569 164.75L124.99 164.357ZM126.493 162.149L126.695 161.479L126.204 161.33L125.915 161.755L126.493 162.149ZM135.499 164.873L135.297 165.542L135.334 165.554L135.372 165.561L135.499 164.873ZM141.845 166.792L141.569 167.435L141.605 167.45L141.642 167.462L141.845 166.792ZM289.187 211.36L288.985 212.029L288.985 212.029L289.187 211.36ZM314.327 271.304L314.924 271.668L314.924 271.668L314.327 271.304ZM298.141 297.863L297.543 297.499L297.543 297.499L298.141 297.863ZM233.602 307.842L234.038 307.295L234.038 307.295L233.602 307.842ZM144.436 237.062L127.683 286.058L129.006 286.511L145.76 237.515L144.436 237.062ZM128.377 285.586L93.2259 283.971L93.1617 285.369L128.313 286.983L128.377 285.586ZM93.8827 284.549L78.8007 198.597L77.4229 198.839L92.5049 284.791L93.8827 284.549ZM78.8007 198.597C75.7606 181.272 90.0606 165.056 108.541 165.056L108.541 163.658C89.2682 163.658 74.2196 180.583 77.4229 198.839L78.8007 198.597ZM108.541 165.056L124.99 165.056L124.99 163.658L108.541 163.658L108.541 165.056ZM125.569 164.75L127.071 162.542L125.915 161.755L124.412 163.963L125.569 164.75ZM126.29 162.818L135.297 165.542L135.702 164.203L126.695 161.479L126.29 162.818ZM135.372 165.561C137.552 165.963 139.625 166.599 141.569 167.435L142.121 166.15C140.082 165.272 137.909 164.607 135.626 164.185L135.372 165.561ZM141.642 167.462L288.985 212.029L289.39 210.69L142.047 166.123L141.642 167.462ZM288.985 212.029C315.187 219.955 327.221 248.804 313.729 270.94L314.924 271.668C328.942 248.667 316.373 218.852 289.39 210.69L288.985 212.029ZM313.729 270.94L297.543 297.499L298.738 298.227L314.924 271.668L313.729 270.94ZM297.543 297.499C284.593 318.749 254.322 323.465 234.038 307.295L233.166 308.389C254.06 325.045 285.317 320.248 298.738 298.227L297.543 297.499ZM234.038 307.295L145.534 236.742L144.662 237.835L233.166 308.389L234.038 307.295Z" fill="black"/>
<path d="M92.7896 284.297L128.733 286.296L131.52 314.669C131.52 314.669 99.9874 313.81 80.8591 308.184L93.7161 302.242L92.7896 284.297Z" fill="#EEEEEE" stroke="black" stroke-width="1.39887" stroke-linejoin="round"/>
<rect width="83.1059" height="16.4351" rx="2.00878" transform="matrix(0.274047 0.961716 0.969694 -0.244321 80.6753 77.4667)" fill="#EEEEEE" stroke="black" stroke-width="1.39887"/>
<rect width="87.9956" height="15.5144" rx="2.00878" transform="matrix(-1 0 0 1 187.951 149.299)" fill="#044884" stroke="black" stroke-width="1.39887"/>
<path d="M27.0567 263.274L31.5025 297.788L4.67232 304.751C4.67232 304.751 -0.382653 275.014 2.0669 256.019L10.9277 266.965L27.0567 263.274Z" fill="#EEEEEE" stroke="black" stroke-width="1.39887" stroke-linejoin="round"/>
<path d="M160.294 174.008L180.429 142.462L242.163 174.071C239.333 137.59 265.961 85.0902 293.923 88.2882C342.978 93.898 306.838 207.595 274.704 227.636C242.569 247.677 160.294 174.008 160.294 174.008Z" fill="#EEEEEE"/>
<path d="M313.456 158.066C305.864 187.98 289.84 218.196 274.704 227.636C242.569 247.677 160.295 174.008 160.295 174.008L180.43 142.462L242.163 174.071L263.147 124.573" stroke="black" stroke-width="1.39887"/>
<path d="M176.473 139.873L180.619 142.66L160.334 174.034L153.833 169.677C143.974 163.068 143.181 149.451 152.196 141.536C158.949 135.608 169.093 134.912 176.473 139.873Z" fill="#F5B9AB" stroke="black" stroke-width="1.39887" stroke-linejoin="round"/>
</svg>