<svg width="300" height="300" viewBox="0 0 300 300" fill="none" xmlns="http://www.w3.org/2000/svg">
    <path d="M300 0H0V300H300V0Z" fill="#8FB3FF"/>
    <path d="M194 125L215.651 137.5V162.5L194 175L172.349 162.5V137.5L194 125Z" fill="white"/>
    <path d="M128 87L149.651 99.5V124.5L128 137L106.349 124.5V99.5L128 87Z" fill="white"/>
    <path d="M106 125L127.651 137.5V162.5L106 175L84.3494 162.5V137.5L106 125Z" fill="white"/>
    <path d="M172 163L193.651 175.5V200.5L172 213L150.349 200.5V175.5L172 163Z" fill="white"/>
    <path d="M128 163L149.651 175.5V200.5L128 213L106.349 200.5V175.5L128 163Z" fill="white"/>
    <path d="M129.349 62.0773L150 50.1547L170.651 62.0773V85.9226L150 97.8453L129.349 85.9226V62.0773Z" fill="#044884" stroke="black" stroke-width="2"/>
    <path d="M216 163L194.349 175.5V200.5L216 213L237.651 200.5V175.5L216 163Z" fill="white"/>
    <path d="M84 163L105.651 175.5V200.5L84 213L62.3494 200.5V175.5L84 163Z" fill="white"/>
    <path d="M172 87L193.651 99.5V124.5L172 137L150.349 124.5V99.5L172 87Z" fill="white"/>
    <path d="M209.015 179.826C209.111 179.282 209.63 178.919 210.174 179.015L219.037 180.578C219.581 180.674 219.944 181.193 219.848 181.736C219.752 182.28 219.234 182.644 218.69 182.548L210.811 181.158L209.422 189.037C209.326 189.581 208.808 189.944 208.264 189.848C207.72 189.752 207.357 189.234 207.453 188.69L209.015 179.826ZM220.653 196.957L209.181 180.574L210.819 179.426L222.291 195.809L220.653 196.957Z" fill="black"/>
    <path d="M187.015 141.826C187.111 141.282 187.63 140.919 188.174 141.015L197.037 142.578C197.581 142.674 197.944 143.193 197.848 143.736C197.752 144.28 197.234 144.644 196.69 144.548L188.811 143.158L187.422 151.037C187.326 151.581 186.808 151.944 186.264 151.848C185.72 151.752 185.357 151.234 185.453 150.69L187.015 141.826ZM198.653 158.957L187.181 142.574L188.819 141.426L200.291 157.809L198.653 158.957Z" fill="black"/>
    <path d="M165.015 103.826C165.111 103.282 165.63 102.919 166.174 103.015L175.037 104.578C175.581 104.674 175.944 105.193 175.848 105.736C175.752 106.28 175.234 106.644 174.69 106.548L166.811 105.158L165.422 113.037C165.326 113.581 164.808 113.944 164.264 113.848C163.72 113.752 163.357 113.234 163.453 112.69L165.015 103.826ZM176.653 120.957L165.181 104.574L166.819 103.426L178.291 119.809L176.653 120.957Z" fill="black"/>
    <path d="M90.4563 179.826C90.3604 179.282 89.8418 178.919 89.2979 179.015L80.4346 180.578C79.8907 180.674 79.5275 181.193 79.6235 181.736C79.7194 182.28 80.238 182.644 80.7819 182.548L88.6604 181.158L90.0496 189.037C90.1455 189.581 90.6641 189.944 91.208 189.848C91.7519 189.752 92.1151 189.234 92.0192 188.69L90.4563 179.826ZM78.8192 196.957L90.2907 180.574L88.6524 179.426L77.1808 195.809L78.8192 196.957Z" fill="black"/>
    <path d="M112.456 141.826C112.36 141.282 111.842 140.919 111.298 141.015L102.435 142.578C101.891 142.674 101.528 143.193 101.623 143.736C101.719 144.28 102.238 144.644 102.782 144.548L110.66 143.158L112.05 151.037C112.145 151.581 112.664 151.944 113.208 151.848C113.752 151.752 114.115 151.234 114.019 150.69L112.456 141.826ZM100.819 158.957L112.291 142.574L110.652 141.426L99.1808 157.809L100.819 158.957Z" fill="black"/>
    <path d="M134.456 103.826C134.36 103.282 133.842 102.919 133.298 103.015L124.435 104.578C123.891 104.674 123.528 105.193 123.623 105.736C123.719 106.28 124.238 106.644 124.782 106.548L132.66 105.158L134.05 113.037C134.145 113.581 134.664 113.944 135.208 113.848C135.752 113.752 136.115 113.234 136.019 112.69L134.456 103.826ZM122.819 120.957L134.291 104.574L132.652 103.426L121.181 119.809L122.819 120.957Z" fill="black"/>
    <path d="M150 125L171.651 137.5V162.5L150 175L128.349 162.5V137.5L150 125Z" fill="white"/>
    <path d="M150.707 136.293C150.317 135.902 149.683 135.902 149.293 136.293L142.929 142.657C142.538 143.047 142.538 143.681 142.929 144.071C143.319 144.462 143.953 144.462 144.343 144.071L150 138.414L155.657 144.071C156.047 144.462 156.681 144.462 157.071 144.071C157.462 143.681 157.462 143.047 157.071 142.657L150.707 136.293ZM151 167V137H149V167H151Z" fill="black"/>
</svg>