<svg width="300" height="300" viewBox="0 0 300 300" fill="none" xmlns="http://www.w3.org/2000/svg">
    <rect width="300" height="300" fill="#8FB3FF"/>
    <path d="M128.5 137.5C120.093 129.354 112.677 126.3 92 125C99.8174 144.475 99.5724 155.31 92 174.5C112.677 173.2 120.093 170.146 128.5 162V137.5Z" fill="white" stroke="black" stroke-width="3" stroke-linecap="round" stroke-linejoin="round"/>
    <path d="M145.5 189L151.5 179.5L126 177L117 195.5L145.5 189Z" fill="white" stroke="black" stroke-width="4" stroke-linecap="round"/>
    <path d="M54 150.927C69.7812 142.853 78.8756 140.037 96 141.282V159.607C76.9727 161.143 68.3533 158.163 54 150.927Z" fill="#8FB3FF" stroke="black" stroke-width="3" stroke-linecap="round"/>
    <path d="M66 150.927C77.2723 142.853 83.7683 140.037 96 141.282V159.607C82.409 161.143 76.2524 158.163 66 150.927Z" fill="#3774BC" stroke="black" stroke-width="3" stroke-linecap="round"/>
    <path d="M77 150.747C84.1391 146.073 88.2533 144.443 96 145.163C98.2325 149.199 98.08 151.529 96 155.772C87.3924 156.662 83.4932 154.936 77 150.747Z" fill="#044884" stroke="black" stroke-width="3" stroke-linecap="round"/>
    <path d="M145.5 110.5L151.5 120L126 122.5L117 104L145.5 110.5Z" fill="white" stroke="black" stroke-width="4" stroke-linecap="round"/>
    <path d="M246.5 149.57C208.644 116.709 181.096 114.586 127 123.57V176C181.096 184.984 208.644 182.861 246.5 150V149.57Z" fill="#044884" stroke="black" stroke-width="4" stroke-linecap="round"/>
    <rect x="176.5" y="140.57" width="18" height="18" rx="9" fill="white" stroke="black" stroke-width="2"/>
    <rect x="148.5" y="143.57" width="13" height="13" rx="6.5" fill="white" stroke="black" stroke-width="2"/>
    <path d="M214.5 128C230 134.5 235.718 140.271 246.5 149.5C234.003 158.287 231 165 214.5 172V128Z" fill="white" stroke="black" stroke-width="3" stroke-linecap="round" stroke-linejoin="round"/>
</svg>